<?xml version="1.0" encoding="UTF-8"?>
<svg viewBox="0 0 14 14" xmlns="http://www.w3.org/2000/svg">
<path d="m12.004 0.49609c-0.384 0-0.767 0.148-1.06 0.442l-2.468 2.464-5.994-1.066-1.414 1.414 5.28 1.783-3.041 3.055-1.182-0.248-1.414 1.414 2.488 1.046 1.047 2.488 1.416-1.414-0.242-1.172 3.055-3.055 1.795 5.27 1.414-1.414-1.061-6.003 2.441-2.441c0.1397-0.13916 0.2505-0.30452 0.326-0.48659 0.0756-0.18207 0.1145-0.37727 0.1145-0.57441 0-0.19713-0.0389-0.39233-0.1145-0.5744-0.0755-0.18207-0.1863-0.34743-0.326-0.4866-0.139-0.13951-0.3042-0.25019-0.4861-0.32569-0.1819-0.075506-0.3769-0.11535-0.5739-0.11531z" fill="none" stroke="#ededed" stroke-linecap="round" stroke-linejoin="round"/>
</svg>
